<svg width="64" height="92" viewBox="0 0 64 92" fill="none" xmlns="http://www.w3.org/2000/svg">
<path d="M0 42L5 44.8868V39.1132L0 42ZM40.5 42V42.5H41V42H40.5ZM40.5 3V2.5H40V3H40.5ZM64 3L59 0.113249V5.88675L64 3ZM0 50L5 52.8868V47.1132L0 50ZM40.5 50H41V49.5H40.5V50ZM40.5 89H40V89.5H40.5V89ZM64 89L59 86.1132V91.8868L64 89ZM4.5 42.5H40.5V41.5H4.5V42.5ZM41 42V3H40V42H41ZM40.5 3.5H59.5V2.5H40.5V3.5ZM4.5 50.5H40.5V49.5H4.5V50.5ZM40 50V89H41V50H40ZM40.5 89.5H59.5V88.5H40.5V89.5Z" fill="#FFC300"/>
</svg>
